<?xml version="1.0" encoding="UTF-8"?>
<!-- Created by JSCAD SVG Serializer -->
<!DOCTYPE svg PUBLIC "-//W3C//DTD SVG 1.1 Tiny//EN" "http://www.w3.org/Graphics/SVG/1.1/DTD/svg11-tiny.dtd">
<svg width="115.3333mm" height="29.3333mm" viewBox="0 0 115.3333 27.3333" version="1.1" baseProfile="tiny" xmlns="http://www.w3.org/2000/svg" xmlns:xlink="http://www.w3.org/1999/xlink">
  <g>
    <path fill-rule="evenodd" fill="none" stroke="rgb(99,40,137,255)" d="M27.3333 13.6667L23.3305 9.6638L23.3305 4.0029L17.6695 4.0029L13.6667 0L9.6638 4.0029L4.0029 4.0029L4.0029 9.6638L0 13.6667L4.0029 17.6695L4.0029 23.3305L9.6638 23.3305L13.6667 27.3333L17.6695 23.3305L23.3305 23.3305L23.3305 17.6695L27.3333 13.6667"/>
  </g>
  <g>
    <path fill-rule="evenodd" fill="none" stroke="rgb(99,40,137,255)" d="M56.6667 13.6667L54.0566 11.3165L55.4851 8.1079L52.1448 7.0226L52.1448 3.5104L48.6518 3.8775L47.2232 0.6689L44.1815 2.425L41.5714 0.0749L39.507 2.9163L36.1667 1.831L35.4364 5.2665L31.9434 5.6336L32.6737 9.0691L29.632 10.8252L31.6964 13.6667L29.632 16.5081L32.6737 18.2642L31.9434 21.6997L35.4364 22.0669L36.1667 25.5023L39.507 24.417L41.5714 27.2585L44.1815 24.9083L47.2232 26.6644L48.6518 23.4559L52.1448 23.823L52.1448 20.3107L55.4851 19.2254L54.0566 16.0168L56.6667 13.6667"/>
  </g>
  <g>
    <path fill-rule="evenodd" fill="none" stroke="rgb(99,40,137,255)" d="M86 13.6667L78.9338 11.8981L84.169 6.8333L77.1652 8.8348L79.1667 1.831L74.1019 7.0662L72.3333 0L70.5647 7.0662L65.5 1.831L67.5014 8.8348L60.4977 6.8333L65.7328 11.8981L58.6667 13.6667L65.7328 15.4353L60.4977 20.5L67.5014 18.4986L65.5 25.5023L70.5647 20.2672L72.3333 27.3333L74.1019 20.2672L79.1667 25.5023L77.1652 18.4986L84.169 20.5L78.9338 15.4353L86 13.6667"/>
  </g>
  <g>
    <path fill-rule="evenodd" fill="none" stroke="rgb(99,40,137,255)" d="M115.3333 13.6667L106.1885 12.7055L114.1518 8.1079L105.4067 10.9494L110.8115 3.5104L103.9781 9.6631L105.8899 0.6689L102.1499 9.0691L100.2381 0.0749L100.2381 9.27L94.8333 1.831L98.5733 10.2312L90.6101 5.6336L97.4434 11.7864L88.2986 10.8252L97.0438 13.6667L88.2986 16.5081L97.4434 15.547L90.6101 21.6997L98.5733 17.1022L94.8333 25.5023L100.2381 18.0633L100.2381 27.2585L102.1499 18.2642L105.8899 26.6644L103.9781 17.6702L110.8115 23.823L105.4067 16.3839L114.1518 19.2254L106.1885 14.6278L115.3333 13.6667"/>
  </g>
</svg>
