<?xml version="1.0" encoding="UTF-8"?>
<!-- Created by JSCAD SVG Serializer -->
<!DOCTYPE svg PUBLIC "-//W3C//DTD SVG 1.1 Tiny//EN" "http://www.w3.org/Graphics/SVG/1.1/DTD/svg11-tiny.dtd">
<svg width="168mm" height="29.3333mm" viewBox="0 0 170 27.3333" version="1.1" baseProfile="tiny" xmlns="http://www.w3.org/2000/svg" xmlns:xlink="http://www.w3.org/1999/xlink">
  <g>
    <path fill-rule="evenodd" fill="none" stroke="rgb(99,40,137,255)" d="M54.6667 13.6667L54.6407 13.0705L54.5627 12.4755L54.4328 11.8828L54.2514 11.2935L54.0188 10.7087L53.7353 10.1295L53.4016 9.557L53.0183 8.9924L52.586 8.4367L52.1057 7.8909L51.5783 7.3561L51.0047 6.8333L50.386 6.3236L49.7235 5.8278L49.0183 5.3469L48.2719 4.8819L47.4856 4.4336L46.6609 4.0029L45.7995 3.5905L44.9029 3.1974L43.9728 2.8242L43.0111 2.4716L42.0195 2.1403L41 1.831L39.9545 1.5442L38.8849 1.2805L37.7933 1.0403L36.6819 0.8242L35.5526 0.6325L34.4077 0.4657L33.2493 0.324L32.0797 0.2076L30.901 0.1169L29.7156 0.052L28.5256 0.013L27.3333 0L26.1411 0.013L24.9511 0.052L23.7656 0.1169L22.5869 0.2076L21.4173 0.324L20.2589 0.4657L19.114 0.6325L17.9848 0.8242L16.8733 1.0403L15.7818 1.2805L14.7122 1.5442L13.6667 1.831L12.6471 2.1403L11.6556 2.4716L10.6939 2.8242L9.7638 3.1974L8.8672 3.5905L8.0057 4.0029L7.1811 4.4336L6.3948 4.8819L5.6483 5.3469L4.9432 5.8278L4.2806 6.3236L3.662 6.8333L3.0884 7.3561L2.5609 7.8909L2.0806 8.4367L1.6484 8.9924L1.2651 9.557L0.9314 10.1295L0.6479 10.7087L0.4153 11.2935L0.2338 11.8828L0.104 12.4755L0.026 13.0705L0 13.6667L0.026 14.2628L0.104 14.8578L0.2338 15.4505L0.4153 16.0399L0.6479 16.6247L0.9314 17.2039L1.2651 17.7763L1.6484 18.3409L2.0806 18.8967L2.5609 19.4424L3.0884 19.9772L3.662 20.5L4.2806 21.0098L4.9432 21.5055L5.6483 21.9864L6.3948 22.4514L7.1811 22.8997L8.0057 23.3305L8.8672 23.7428L9.7638 24.1359L10.6939 24.5092L11.6556 24.8617L12.6471 25.193L13.6667 25.5023L14.7122 25.7891L15.7818 26.0529L16.8733 26.293L17.9848 26.5091L19.114 26.7008L20.2589 26.8677L21.4173 27.0094L22.5869 27.1257L23.7656 27.2164L24.9511 27.2813L26.1411 27.3203L27.3333 27.3333L28.5256 27.3203L29.7156 27.2813L30.901 27.2164L32.0797 27.1257L33.2493 27.0094L34.4077 26.8677L35.5526 26.7008L36.6819 26.5091L37.7933 26.293L38.8849 26.0529L39.9545 25.7891L41 25.5023L42.0195 25.193L43.0111 24.8617L43.9728 24.5092L44.9029 24.1359L45.7995 23.7428L46.6609 23.3305L47.4856 22.8997L48.2719 22.4514L49.0183 21.9864L49.7235 21.5055L50.386 21.0098L51.0047 20.5L51.5783 19.9772L52.1057 19.4424L52.586 18.8967L53.0183 18.3409L53.4016 17.7763L53.7353 17.2039L54.0188 16.6247L54.2514 16.0399L54.4328 15.4505L54.5627 14.8578L54.6407 14.2628L54.6667 13.6667"/>
  </g>
  <g>
    <path fill-rule="evenodd" fill="none" stroke="rgb(99,40,137,255)" d="M111.3333 13.6667L109.2527 8.4367L103.3276 4.0029L94.46 1.0403L84 0L73.54 1.0403L64.6724 4.0029L58.7473 8.4367L56.6667 13.6667L58.7473 18.8967L64.6724 23.3305L73.54 26.293L84 27.3333L94.46 26.293L103.3276 23.3305L109.2527 18.8967L111.3333 13.6667"/>
  </g>
  <g>
    <path fill-rule="evenodd" fill="none" stroke="rgb(99,40,137,255)" d="M168 13.6667L140.6667 0L113.3333 13.6667L140.6667 27.3333L168 13.6667"/>
  </g>
</svg>
