<?xml version="1.0" encoding="UTF-8"?>
<!-- Created by JSCAD SVG Serializer -->
<!DOCTYPE svg PUBLIC "-//W3C//DTD SVG 1.1 Tiny//EN" "http://www.w3.org/Graphics/SVG/1.1/DTD/svg11-tiny.dtd">
<svg width="86mm" height="29.3333mm" viewBox="0 0 86 27.3333" version="1.1" baseProfile="tiny" xmlns="http://www.w3.org/2000/svg" xmlns:xlink="http://www.w3.org/1999/xlink">
  <g>
    <path fill-rule="evenodd" fill="none" stroke="rgb(99,40,137,255)" d="M27.3333 13.6667L27.3203 13.0705L27.2813 12.4755L27.2164 11.8828L27.1257 11.2935L27.0094 10.7087L26.8677 10.1295L26.7008 9.557L26.5091 8.9924L26.293 8.4367L26.0529 7.8909L25.7891 7.3561L25.5023 6.8333L25.193 6.3236L24.8617 5.8278L24.5092 5.3469L24.1359 4.8819L23.7428 4.4336L23.3305 4.0029L22.8997 3.5905L22.4514 3.1974L21.9864 2.8242L21.5055 2.4716L21.0098 2.1403L20.5 1.831L19.9772 1.5442L19.4424 1.2805L18.8967 1.0403L18.3409 0.8242L17.7763 0.6325L17.2039 0.4657L16.6247 0.324L16.0399 0.2076L15.4505 0.1169L14.8578 0.052L14.2628 0.013L13.6667 0L13.0705 0.013L12.4755 0.052L11.8828 0.1169L11.2935 0.2076L10.7087 0.324L10.1295 0.4657L9.557 0.6325L8.9924 0.8242L8.4367 1.0403L7.8909 1.2805L7.3561 1.5442L6.8333 1.831L6.3236 2.1403L5.8278 2.4716L5.3469 2.8242L4.8819 3.1974L4.4336 3.5905L4.0029 4.0029L3.5905 4.4336L3.1974 4.8819L2.8242 5.3469L2.4716 5.8278L2.1403 6.3236L1.831 6.8333L1.5442 7.3561L1.2805 7.8909L1.0403 8.4367L0.8242 8.9924L0.6325 9.557L0.4657 10.1295L0.324 10.7087L0.2076 11.2935L0.1169 11.8828L0.052 12.4755L0.013 13.0705L0 13.6667L0.013 14.2628L0.052 14.8578L0.1169 15.4505L0.2076 16.0399L0.324 16.6247L0.4657 17.2039L0.6325 17.7763L0.8242 18.3409L1.0403 18.8967L1.2805 19.4424L1.5442 19.9772L1.831 20.5L2.1403 21.0098L2.4716 21.5055L2.8242 21.9864L3.1974 22.4514L3.5905 22.8997L4.0029 23.3305L4.4336 23.7428L4.8819 24.1359L5.3469 24.5092L5.8278 24.8617L6.3236 25.193L6.8333 25.5023L7.3561 25.7891L7.8909 26.0529L8.4367 26.293L8.9924 26.5091L9.557 26.7008L10.1295 26.8677L10.7087 27.0094L11.2935 27.1257L11.8828 27.2164L12.4755 27.2813L13.0705 27.3203L13.6667 27.3333L14.2628 27.3203L14.8578 27.2813L15.4505 27.2164L16.0399 27.1257L16.6247 27.0094L17.2039 26.8677L17.7763 26.7008L18.3409 26.5091L18.8967 26.293L19.4424 26.0529L19.9772 25.7891L20.5 25.5023L21.0098 25.193L21.5055 24.8617L21.9864 24.5092L22.4514 24.1359L22.8997 23.7428L23.3305 23.3305L23.7428 22.8997L24.1359 22.4514L24.5092 21.9864L24.8617 21.5055L25.193 21.0098L25.5023 20.5L25.7891 19.9772L26.0529 19.4424L26.293 18.8967L26.5091 18.3409L26.7008 17.7763L26.8677 17.2039L27.0094 16.6247L27.1257 16.0399L27.2164 15.4505L27.2813 14.8578L27.3203 14.2628L27.3333 13.6667"/>
  </g>
  <g>
    <path fill-rule="evenodd" fill="none" stroke="rgb(99,40,137,255)" d="M56.6667 13.6667L55.6264 8.4367L52.6638 4.0029L48.23 1.0403L43 0L37.77 1.0403L33.3362 4.0029L30.3736 8.4367L29.3333 13.6667L30.3736 18.8967L33.3362 23.3305L37.77 26.293L43 27.3333L48.23 26.293L52.6638 23.3305L55.6264 18.8967L56.6667 13.6667"/>
  </g>
  <g>
    <path fill-rule="evenodd" fill="none" stroke="rgb(99,40,137,255)" d="M86 13.6667L72.3333 0L58.6667 13.6667L72.3333 27.3333L86 13.6667"/>
  </g>
</svg>
