<?xml version="1.0" encoding="UTF-8" standalone="no"?>
<!-- Copyright 2017 mathsisfun.com -->
<svg xmlns="http://www.w3.org/2000/svg" width="218.4" height="154" version="1.1">
<defs>
<marker id="id02" style="overflow:visible;" orient="auto">
<path transform="scale(0.4) rotate(180) translate(10,0)" style="fill:#c4a000; stroke:#c4a000; stroke-width:1pt;" d="M 0,0 L 5,-5 L -12.5,0 L 5,5 L 0,0 z "/>
</marker>
<marker id="id06" style="overflow:visible;" orient="auto">
<path transform="scale(0.4) rotate(180) translate(10,0)" style="fill:#8f5902; stroke:#8f5902; stroke-width:1pt;" d="M 0,0 L 5,-5 L -12.5,0 L 5,5 L 0,0 z "/>
</marker>
<marker id="id04" style="overflow:visible;" orient="auto">
<path transform="scale(0.4) rotate(180) translate(10,0)" style="fill:#ad7fa8; stroke:#ad7fa8; stroke-width:1pt;" d="M 0,0 L 5,-5 L -12.5,0 L 5,5 L 0,0 z "/>
</marker>
<marker id="id01" style="overflow:visible;" orient="auto">
<path transform="scale(0.4) translate(10,0)" style="fill:#c4a000; stroke:#c4a000; stroke-width:1pt;" d="M 0,0 L 5,-5 L -12.5,0 L 5,5 L 0,0 z "/>
</marker>
<marker id="id05" style="overflow:visible;" orient="auto">
<path transform="scale(0.4) translate(10,0)" style="fill:#8f5902; stroke:#8f5902; stroke-width:1pt;" d="M 0,0 L 5,-5 L -12.5,0 L 5,5 L 0,0 z "/>
</marker>
<marker id="id03" style="overflow:visible;" orient="auto">
<path transform="scale(0.4) translate(10,0)" style="fill:#ad7fa8; stroke:#ad7fa8; stroke-width:1pt;" d="M 0,0 L 5,-5 L -12.5,0 L 5,5 L 0,0 z "/>
</marker>
</defs>
<path style="color:black; opacity:0.16; fill:#2716f8; stroke:white;" d="M 8,72.1 57.6,56.8 55.3,2.4 0.9,9.7 c 0,0 5.2,50.1 7.1,62.4 z"/>
<path style="color:black; opacity:0.28; fill:#2716f8; stroke:white;" d="m 55.3,2.4 2.3,54.4 121.6,43.2 7.4,-73.4 z"/>
<path style="color:black; opacity:0.23; fill:#2716f1; stroke:white;" d="M 57.6,56.8 8,72.1 l 120.6,57.3 50.6,-29.4 z"/>
<path style="color:black; opacity:0.23; fill:#2716f1; stroke:white;" d="m 128.6,129.4 50.6,-29.4 7.4,-73.4 -54.8,16.4 c 0,0 -2.2,63.2 -3.2,86.4 z"/>
<path style="color:black; opacity:0.31; fill:#2716f1; stroke:white;" d="m 0.9,9.7 7.1,62.4 120.6,57.3 3.2,-86.4 z"/>
<text x="83.1" y="83.1" transform="rotate(29.53)" style="font-family:'Comic Sans MS'; font-size:20px; color:black; fill:#c4a000;">width</text>
<text x="27.1" y="214.3" transform="rotate(-37.34)" style="font-family:'Comic Sans MS'; font-size:20px; color:black; fill:#ad7fa8;">depth</text>
<text x="-67.6" y="217.6" transform="rotate(-83.67)" style="font-family:'Comic Sans MS'; font-size:20px; color:black; fill:#8f5902;">height</text>
<path style="color:black; opacity:0.41; fill:#2716f1; stroke:white;" d="M 0.9,9.7 131.8,43 186.6,26.6 55.3,2.4 Z"/>
<path style="marker-start:url(#id01); marker-end:url(#id02); fill:none; stroke:#c4a000; stroke-width:1.35;" d="M 7.2,80.3 123.1,135.3"/>
<path style="marker-start:url(#id03); marker-end:url(#id04); fill:none; stroke:#ad7fa8; stroke-width:1.34;" d="m 134.7,136.1 48.4,-28.1"/>
<path style="marker-start:url(#id05); marker-end:url(#id06); fill:none; stroke:#8f5902; stroke-width:1.34;" d="m 185.5,99.8 7.1,-70.4"/>
</svg>
